<svg width="90" height="22" viewBox="0 0 90 22" fill="none" xmlns="http://www.w3.org/2000/svg">
<path d="M28.105 4.09133C27.7763 2.85846 26.8037 1.88585 25.5662 1.55252C23.3288 0.954346 14.3516 0.954346 14.3516 0.954346C14.3516 0.954346 5.379 0.954346 3.13699 1.55252C1.90411 1.88129 0.931508 2.85389 0.598174 4.09133C0 6.32878 0 11 0 11C0 11 0 15.6713 0.598174 17.9087C0.926941 19.1416 1.89954 20.1142 3.13699 20.4475C5.379 21.0457 14.3516 21.0457 14.3516 21.0457C14.3516 21.0457 23.3288 21.0457 25.5662 20.4475C26.7991 20.1187 27.7717 19.1461 28.105 17.9087C28.7032 15.6713 28.7032 11 28.7032 11C28.7032 11 28.7032 6.32878 28.105 4.09133Z" fill="#FF0000"/>
<path d="M11.4839 15.306L18.9405 11L11.4839 6.69409V15.306Z" fill="white"/>
<path d="M41.6621 19.233C41.0959 18.8495 40.6895 18.2558 40.452 17.4476C40.2146 16.6394 40.0913 15.5663 40.0913 14.2239V12.3974C40.0913 11.0412 40.2283 9.95447 40.5023 9.13255C40.7762 8.31063 41.2055 7.71246 41.7854 7.33803C42.3653 6.9636 43.1278 6.77182 44.073 6.77182C45.0046 6.77182 45.7488 6.9636 46.3105 7.34716C46.8721 7.73073 47.2831 8.3289 47.5434 9.14169C47.8036 9.95447 47.9315 11.0412 47.9315 12.3928V14.2193C47.9315 15.5618 47.8036 16.6394 47.5525 17.4522C47.3014 18.265 46.8904 18.8632 46.3196 19.2376C45.7534 19.612 44.9817 19.8038 44.0091 19.8038C43.0137 19.8084 42.2283 19.6166 41.6621 19.233ZM44.8447 17.2604C45 16.8495 45.0822 16.1782 45.0822 15.2513V11.3289C45.0822 10.4248 45.0046 9.76726 44.8447 9.34716C44.6895 8.93164 44.4109 8.72159 44.0137 8.72159C43.6301 8.72159 43.3607 8.93164 43.2009 9.34716C43.0456 9.76269 42.9635 10.4248 42.9635 11.3289V15.2513C42.9635 16.1828 43.0365 16.854 43.1872 17.2604C43.3379 17.6714 43.6119 17.8769 44.0091 17.8769C44.4109 17.8769 44.6849 17.6714 44.8447 17.2604Z" fill="white"/>
<path d="M85.2561 14.2558V14.8905C85.2561 15.6987 85.2789 16.3014 85.3291 16.7078C85.3748 17.1096 85.4752 17.4064 85.6259 17.5891C85.7766 17.7717 86.0095 17.8676 86.3246 17.8676C86.7492 17.8676 87.0415 17.7033 87.1967 17.3745C87.352 17.0457 87.4387 16.4978 87.4524 15.7306L89.8953 15.8722C89.909 15.9818 89.9136 16.1325 89.9136 16.3243C89.9136 17.4886 89.594 18.3562 88.9593 18.9316C88.3246 19.5069 87.425 19.7946 86.2606 19.7946C84.8634 19.7946 83.8862 19.3562 83.3246 18.4795C82.7629 17.6028 82.4844 16.2512 82.4844 14.4156V12.2192C82.4844 10.3288 82.7766 8.95439 83.3565 8.08224C83.9364 7.21466 84.9319 6.78087 86.3428 6.78087C87.3154 6.78087 88.0597 6.95895 88.5803 7.31512C89.1008 7.67128 89.4661 8.22379 89.6807 8.97722C89.8908 9.73064 90.0004 10.7717 90.0004 12.0959V14.2512H85.2561V14.2558ZM85.6168 8.95895C85.4752 9.13704 85.3794 9.42927 85.3291 9.8311C85.2789 10.2329 85.2561 10.8494 85.2561 11.6667V12.5708H87.3291V11.6667C87.3291 10.8585 87.3017 10.2466 87.2469 9.8311C87.1921 9.41557 87.0917 9.11877 86.9501 8.94982C86.8086 8.78087 86.5848 8.69411 86.2835 8.69411C85.9821 8.68955 85.7584 8.78087 85.6168 8.95895Z" fill="white"/>
<path d="M34.7672 14.0184L31.5435 2.37911H34.3562L35.4841 7.65309C35.7718 8.95446 35.9818 10.0595 36.1188 10.9773H36.201C36.2969 10.3198 36.5069 9.2193 36.8357 7.67135L38.0047 2.37454H40.8174L37.5572 14.0184V19.6029H34.7672V14.0184Z" fill="white"/>
<path d="M57.078 7.0183V19.5982H54.8634L54.6168 18.0594H54.5574C53.9547 19.2238 53.0506 19.8037 51.8497 19.8037C51.014 19.8037 50.3976 19.5297 50.0003 18.9818C49.6031 18.4338 49.4067 17.5799 49.4067 16.4156V7.0183H52.2378V16.2557C52.2378 16.8174 52.2972 17.2192 52.4204 17.4567C52.5437 17.6941 52.7492 17.8174 53.0369 17.8174C53.2835 17.8174 53.5209 17.7443 53.7446 17.5936C53.9684 17.443 54.1373 17.2512 54.2469 17.0183V7.0183H57.078Z" fill="white"/>
<path d="M71.6073 7.0183V19.5982H69.3927L69.1461 18.0594H69.0867C68.484 19.2238 67.5799 19.8037 66.379 19.8037C65.5433 19.8037 64.9269 19.5297 64.5296 18.9818C64.1324 18.4338 63.936 17.5799 63.936 16.4156V7.0183H66.7671V16.2557C66.7671 16.8174 66.8265 17.2192 66.9497 17.4567C67.073 17.6941 67.2785 17.8174 67.5662 17.8174C67.8127 17.8174 68.0502 17.7443 68.2739 17.5936C68.4977 17.443 68.6666 17.2512 68.7762 17.0183V7.0183H71.6073Z" fill="white"/>
<path d="M64.7767 4.65768H61.9639V19.5983H59.1922V4.65768H56.3794V2.37914H64.7721V4.65768H64.7767Z" fill="white"/>
<path d="M80.9821 9.03206C80.8086 8.23754 80.5346 7.6622 80.1511 7.30603C79.7675 6.94987 79.2424 6.77179 78.5711 6.77179C78.0506 6.77179 77.5666 6.91791 77.1145 7.21471C76.6625 7.50695 76.3154 7.89508 76.0689 8.37453H76.046V1.74438H73.3154V19.6028H75.6533L75.941 18.4111H76.0004C76.2195 18.8357 76.5483 19.1691 76.9867 19.4156C77.425 19.6622 77.909 19.7855 78.4433 19.7855C79.4022 19.7855 80.1054 19.3426 80.5574 18.4613C81.0095 17.58 81.2332 16.201 81.2332 14.3243V12.3334C81.2378 10.927 81.1511 9.82658 80.9821 9.03206ZM78.3839 14.1645C78.3839 15.0823 78.3474 15.7992 78.2698 16.3197C78.1967 16.8403 78.0689 17.2102 77.8908 17.4293C77.7127 17.6485 77.4753 17.7581 77.1739 17.7581C76.941 17.7581 76.7264 17.7033 76.5255 17.5937C76.3291 17.4841 76.1647 17.3197 76.0415 17.1006V9.95444C76.1374 9.61197 76.3017 9.33343 76.5346 9.11425C76.7675 8.89508 77.0186 8.78549 77.2926 8.78549C77.5803 8.78549 77.804 8.89964 77.9593 9.12339C78.1145 9.34713 78.2241 9.73069 78.288 10.2604C78.3474 10.7946 78.3794 11.5526 78.3794 12.5389V14.1645H78.3839Z" fill="white"/>
</svg>
